<mxfile host="app.diagrams.net" modified="2022-11-24T02:09:29.810Z" agent="5.0 (Windows NT 10.0; Win64; x64) AppleWebKit/537.36 (KHTML, like Gecko) Chrome/107.0.0.0 Safari/537.36" etag="eAV8L1cer2aTCPTGgZr6" version="20.6.0" type="github" pages="2">
  <diagram id="w69KGsKDG2HWZL1i0Xgc" name="第 1 页">
    <mxGraphModel dx="1873" dy="1044" grid="0" gridSize="10" guides="1" tooltips="1" connect="1" arrows="1" fold="1" page="1" pageScale="1" pageWidth="827" pageHeight="1169" math="0" shadow="0">
      <root>
        <mxCell id="0" />
        <mxCell id="1" parent="0" />
        <mxCell id="Cajm6VL7LlUX5pz16_lT-1" value="" style="rounded=1;whiteSpace=wrap;html=1;arcSize=10;" parent="1" vertex="1">
          <mxGeometry x="33.88" y="74" width="207" height="177" as="geometry" />
        </mxCell>
        <mxCell id="Cajm6VL7LlUX5pz16_lT-2" value="Leaf" style="text;html=1;strokeColor=none;fillColor=none;align=center;verticalAlign=middle;whiteSpace=wrap;rounded=0;" parent="1" vertex="1">
          <mxGeometry x="72" y="219" width="60" height="30" as="geometry" />
        </mxCell>
        <mxCell id="Cajm6VL7LlUX5pz16_lT-3" value="Node" style="rounded=1;whiteSpace=wrap;html=1;" parent="1" vertex="1">
          <mxGeometry x="374" y="141" width="83" height="38" as="geometry" />
        </mxCell>
        <mxCell id="Cajm6VL7LlUX5pz16_lT-6" value="" style="group" parent="1" vertex="1" connectable="0">
          <mxGeometry x="459" y="238" width="47" height="48" as="geometry" />
        </mxCell>
        <mxCell id="Cajm6VL7LlUX5pz16_lT-4" value="" style="html=1;whiteSpace=wrap;shape=isoCube2;backgroundOutline=1;isoAngle=15;" parent="Cajm6VL7LlUX5pz16_lT-6" vertex="1">
          <mxGeometry x="8.5" width="25" height="25" as="geometry" />
        </mxCell>
        <mxCell id="Cajm6VL7LlUX5pz16_lT-5" value="SSHD" style="text;html=1;align=center;verticalAlign=middle;resizable=0;points=[];autosize=1;strokeColor=none;fillColor=none;" parent="Cajm6VL7LlUX5pz16_lT-6" vertex="1">
          <mxGeometry x="-4" y="22" width="51" height="26" as="geometry" />
        </mxCell>
        <mxCell id="Cajm6VL7LlUX5pz16_lT-7" style="edgeStyle=orthogonalEdgeStyle;rounded=0;orthogonalLoop=1;jettySize=auto;html=1;exitX=0.5;exitY=0;exitDx=0;exitDy=0;exitPerimeter=0;entryX=0.5;entryY=1;entryDx=0;entryDy=0;curved=1;" parent="1" source="Cajm6VL7LlUX5pz16_lT-4" target="Cajm6VL7LlUX5pz16_lT-3" edge="1">
          <mxGeometry relative="1" as="geometry" />
        </mxCell>
        <mxCell id="Cajm6VL7LlUX5pz16_lT-8" value="发布" style="text;html=1;align=center;verticalAlign=middle;resizable=0;points=[];autosize=1;strokeColor=none;fillColor=none;" parent="1" vertex="1">
          <mxGeometry x="429" y="188" width="42" height="26" as="geometry" />
        </mxCell>
        <mxCell id="Cajm6VL7LlUX5pz16_lT-25" style="edgeStyle=orthogonalEdgeStyle;curved=1;rounded=0;orthogonalLoop=1;jettySize=auto;html=1;exitX=1;exitY=0.5;exitDx=0;exitDy=0;entryX=0;entryY=0.5;entryDx=0;entryDy=0;startArrow=classic;startFill=1;" parent="1" source="Cajm6VL7LlUX5pz16_lT-9" target="Cajm6VL7LlUX5pz16_lT-24" edge="1">
          <mxGeometry relative="1" as="geometry" />
        </mxCell>
        <mxCell id="Cajm6VL7LlUX5pz16_lT-9" value="Control Node" style="rounded=1;whiteSpace=wrap;html=1;" parent="1" vertex="1">
          <mxGeometry x="137" y="322" width="89" height="27" as="geometry" />
        </mxCell>
        <mxCell id="Cajm6VL7LlUX5pz16_lT-10" value="" style="rounded=0;whiteSpace=wrap;html=1;" parent="1" vertex="1">
          <mxGeometry x="41.75" y="84" width="191.25" height="130" as="geometry" />
        </mxCell>
        <mxCell id="Cajm6VL7LlUX5pz16_lT-21" value="" style="shape=filledEdge;rounded=0;fixDash=1;endArrow=none;strokeWidth=10;fillColor=#ffffff;edgeStyle=orthogonalEdgeStyle;curved=1;entryX=0;entryY=0.5;entryDx=0;entryDy=0;" parent="1" target="Cajm6VL7LlUX5pz16_lT-3" edge="1">
          <mxGeometry width="60" height="40" relative="1" as="geometry">
            <mxPoint x="240.88" y="233" as="sourcePoint" />
            <mxPoint x="300.88" y="193" as="targetPoint" />
          </mxGeometry>
        </mxCell>
        <mxCell id="Cajm6VL7LlUX5pz16_lT-20" value="" style="group" parent="1" vertex="1" connectable="0">
          <mxGeometry x="56.38" y="104" width="162" height="104" as="geometry" />
        </mxCell>
        <mxCell id="Cajm6VL7LlUX5pz16_lT-22" value="" style="rounded=0;whiteSpace=wrap;html=1;" parent="Cajm6VL7LlUX5pz16_lT-20" vertex="1">
          <mxGeometry x="94" y="38.31578947368421" width="68" height="65.6842105263158" as="geometry" />
        </mxCell>
        <mxCell id="Cajm6VL7LlUX5pz16_lT-11" value="sshd" style="text;html=1;strokeColor=none;fillColor=none;align=center;verticalAlign=middle;whiteSpace=wrap;rounded=0;" parent="Cajm6VL7LlUX5pz16_lT-20" vertex="1">
          <mxGeometry width="32.05347593582888" height="12.85555555555556" as="geometry" />
        </mxCell>
        <mxCell id="Cajm6VL7LlUX5pz16_lT-12" value="sshd" style="text;html=1;strokeColor=none;fillColor=none;align=center;verticalAlign=middle;whiteSpace=wrap;rounded=0;" parent="Cajm6VL7LlUX5pz16_lT-20" vertex="1">
          <mxGeometry x="42.44919786096258" y="21.651461988304096" width="32.05347593582888" height="12.85555555555556" as="geometry" />
        </mxCell>
        <mxCell id="Cajm6VL7LlUX5pz16_lT-13" style="edgeStyle=orthogonalEdgeStyle;curved=1;rounded=0;orthogonalLoop=1;jettySize=auto;html=1;exitX=0.5;exitY=1;exitDx=0;exitDy=0;entryX=0;entryY=0.5;entryDx=0;entryDy=0;" parent="Cajm6VL7LlUX5pz16_lT-20" source="Cajm6VL7LlUX5pz16_lT-11" target="Cajm6VL7LlUX5pz16_lT-12" edge="1">
          <mxGeometry relative="1" as="geometry">
            <Array as="points">
              <mxPoint x="15.593582887700535" y="27.740935672514624" />
              <mxPoint x="42.44919786096258" y="27.740935672514624" />
            </Array>
          </mxGeometry>
        </mxCell>
        <mxCell id="Cajm6VL7LlUX5pz16_lT-14" value="bash" style="text;html=1;strokeColor=none;fillColor=none;align=center;verticalAlign=middle;whiteSpace=wrap;rounded=0;" parent="Cajm6VL7LlUX5pz16_lT-20" vertex="1">
          <mxGeometry x="42.44919786096258" y="48.03918128654972" width="32.05347593582888" height="12.85555555555556" as="geometry" />
        </mxCell>
        <mxCell id="Cajm6VL7LlUX5pz16_lT-15" value="" style="edgeStyle=orthogonalEdgeStyle;curved=1;rounded=0;orthogonalLoop=1;jettySize=auto;html=1;" parent="Cajm6VL7LlUX5pz16_lT-20" source="Cajm6VL7LlUX5pz16_lT-12" target="Cajm6VL7LlUX5pz16_lT-14" edge="1">
          <mxGeometry relative="1" as="geometry" />
        </mxCell>
        <mxCell id="Cajm6VL7LlUX5pz16_lT-16" value="user Login" style="text;html=1;strokeColor=none;fillColor=none;align=center;verticalAlign=middle;whiteSpace=wrap;rounded=0;" parent="Cajm6VL7LlUX5pz16_lT-20" vertex="1">
          <mxGeometry x="92.69518716577541" y="48.03918128654972" width="69.30481283422459" height="12.85555555555556" as="geometry" />
        </mxCell>
        <mxCell id="Cajm6VL7LlUX5pz16_lT-17" value="" style="edgeStyle=orthogonalEdgeStyle;curved=1;rounded=0;orthogonalLoop=1;jettySize=auto;html=1;" parent="Cajm6VL7LlUX5pz16_lT-20" source="Cajm6VL7LlUX5pz16_lT-14" target="Cajm6VL7LlUX5pz16_lT-16" edge="1">
          <mxGeometry relative="1" as="geometry" />
        </mxCell>
        <mxCell id="Cajm6VL7LlUX5pz16_lT-18" value="ssh&amp;nbsp; Login" style="text;html=1;align=center;verticalAlign=middle;resizable=0;points=[];autosize=1;strokeColor=none;fillColor=none;" parent="Cajm6VL7LlUX5pz16_lT-20" vertex="1">
          <mxGeometry x="92.69518716577541" y="62.247953216374285" width="73" height="26" as="geometry" />
        </mxCell>
        <mxCell id="Cajm6VL7LlUX5pz16_lT-19" value="ssh" style="text;html=1;align=center;verticalAlign=middle;resizable=0;points=[];autosize=1;strokeColor=none;fillColor=none;" parent="Cajm6VL7LlUX5pz16_lT-20" vertex="1">
          <mxGeometry x="92.69518716577541" y="79.83976608187137" width="37" height="26" as="geometry" />
        </mxCell>
        <mxCell id="Cajm6VL7LlUX5pz16_lT-23" style="edgeStyle=orthogonalEdgeStyle;curved=1;rounded=0;orthogonalLoop=1;jettySize=auto;html=1;exitX=0.573;exitY=0.963;exitDx=0;exitDy=0;startArrow=classic;startFill=1;exitPerimeter=0;" parent="1" source="Cajm6VL7LlUX5pz16_lT-19" target="Cajm6VL7LlUX5pz16_lT-9" edge="1">
          <mxGeometry relative="1" as="geometry" />
        </mxCell>
        <mxCell id="Cajm6VL7LlUX5pz16_lT-24" value="auth-center" style="rounded=1;whiteSpace=wrap;html=1;" parent="1" vertex="1">
          <mxGeometry x="321" y="322" width="96" height="30" as="geometry" />
        </mxCell>
        <mxCell id="Cajm6VL7LlUX5pz16_lT-26" value="" style="endArrow=none;dashed=1;html=1;dashPattern=1 3;strokeWidth=2;rounded=0;curved=1;exitX=1.016;exitY=0.576;exitDx=0;exitDy=0;exitPerimeter=0;" parent="1" source="Cajm6VL7LlUX5pz16_lT-19" edge="1">
          <mxGeometry width="50" height="50" relative="1" as="geometry">
            <mxPoint x="322" y="245" as="sourcePoint" />
            <mxPoint x="374" y="160" as="targetPoint" />
            <Array as="points">
              <mxPoint x="226" y="236" />
              <mxPoint x="270" y="230" />
              <mxPoint x="290" y="228" />
              <mxPoint x="304" y="211" />
              <mxPoint x="311" y="187" />
              <mxPoint x="319" y="170" />
              <mxPoint x="333" y="168" />
              <mxPoint x="352" y="160" />
            </Array>
          </mxGeometry>
        </mxCell>
        <mxCell id="nom86BoGTSDF_hDM-FtU-5" value="Leaf" style="rounded=1;whiteSpace=wrap;html=1;" parent="1" vertex="1">
          <mxGeometry x="398" y="569" width="31" height="37.5" as="geometry" />
        </mxCell>
        <mxCell id="nom86BoGTSDF_hDM-FtU-10" style="edgeStyle=orthogonalEdgeStyle;rounded=0;orthogonalLoop=1;jettySize=auto;html=1;exitX=0.5;exitY=0.5;exitDx=0;exitDy=0;exitPerimeter=0;entryX=0;entryY=0.5;entryDx=0;entryDy=0;" parent="1" source="nom86BoGTSDF_hDM-FtU-8" target="nom86BoGTSDF_hDM-FtU-9" edge="1">
          <mxGeometry relative="1" as="geometry" />
        </mxCell>
        <mxCell id="nom86BoGTSDF_hDM-FtU-14" style="edgeStyle=orthogonalEdgeStyle;curved=1;rounded=0;orthogonalLoop=1;jettySize=auto;html=1;exitX=1;exitY=0.3333333333333333;exitDx=0;exitDy=0;exitPerimeter=0;entryX=0;entryY=0.25;entryDx=0;entryDy=0;dashed=1;" parent="1" source="nom86BoGTSDF_hDM-FtU-8" target="nom86BoGTSDF_hDM-FtU-5" edge="1">
          <mxGeometry relative="1" as="geometry">
            <Array as="points">
              <mxPoint x="77" y="561" />
              <mxPoint x="355" y="561" />
              <mxPoint x="355" y="578" />
            </Array>
          </mxGeometry>
        </mxCell>
        <mxCell id="nom86BoGTSDF_hDM-FtU-8" value="DACS" style="shape=umlActor;verticalLabelPosition=bottom;verticalAlign=top;html=1;outlineConnect=0;" parent="1" vertex="1">
          <mxGeometry x="47" y="558" width="30" height="60" as="geometry" />
        </mxCell>
        <mxCell id="nom86BoGTSDF_hDM-FtU-12" style="edgeStyle=orthogonalEdgeStyle;rounded=0;orthogonalLoop=1;jettySize=auto;html=1;exitX=1;exitY=0.5;exitDx=0;exitDy=0;curved=1;" parent="1" source="nom86BoGTSDF_hDM-FtU-9" target="nom86BoGTSDF_hDM-FtU-11" edge="1">
          <mxGeometry relative="1" as="geometry" />
        </mxCell>
        <mxCell id="nom86BoGTSDF_hDM-FtU-13" style="edgeStyle=orthogonalEdgeStyle;curved=1;rounded=0;orthogonalLoop=1;jettySize=auto;html=1;exitX=1;exitY=0.5;exitDx=0;exitDy=0;" parent="1" source="nom86BoGTSDF_hDM-FtU-9" target="nom86BoGTSDF_hDM-FtU-5" edge="1">
          <mxGeometry relative="1" as="geometry" />
        </mxCell>
        <mxCell id="nom86BoGTSDF_hDM-FtU-9" value="Broker" style="rounded=0;whiteSpace=wrap;html=1;" parent="1" vertex="1">
          <mxGeometry x="198" y="569.5" width="56" height="37" as="geometry" />
        </mxCell>
        <mxCell id="nom86BoGTSDF_hDM-FtU-11" value="Others" style="ellipse;shape=cloud;whiteSpace=wrap;html=1;" parent="1" vertex="1">
          <mxGeometry x="276" y="709" width="87" height="50" as="geometry" />
        </mxCell>
        <mxCell id="nom86BoGTSDF_hDM-FtU-16" value="ssh" style="text;html=1;align=center;verticalAlign=middle;resizable=0;points=[];autosize=1;strokeColor=none;fillColor=none;" parent="1" vertex="1">
          <mxGeometry x="210" y="536" width="37" height="26" as="geometry" />
        </mxCell>
        <mxCell id="nom86BoGTSDF_hDM-FtU-17" value="Node" style="rounded=1;whiteSpace=wrap;html=1;" parent="1" vertex="1">
          <mxGeometry x="511" y="569.5" width="83" height="38" as="geometry" />
        </mxCell>
        <mxCell id="nom86BoGTSDF_hDM-FtU-18" value="" style="group" parent="1" vertex="1" connectable="0">
          <mxGeometry x="596" y="666.5" width="47" height="48" as="geometry" />
        </mxCell>
        <mxCell id="nom86BoGTSDF_hDM-FtU-19" value="" style="html=1;whiteSpace=wrap;shape=isoCube2;backgroundOutline=1;isoAngle=15;" parent="nom86BoGTSDF_hDM-FtU-18" vertex="1">
          <mxGeometry x="8.5" width="25" height="25" as="geometry" />
        </mxCell>
        <mxCell id="nom86BoGTSDF_hDM-FtU-20" value="SSHD" style="text;html=1;align=center;verticalAlign=middle;resizable=0;points=[];autosize=1;strokeColor=none;fillColor=none;" parent="nom86BoGTSDF_hDM-FtU-18" vertex="1">
          <mxGeometry x="-4" y="22" width="51" height="26" as="geometry" />
        </mxCell>
        <mxCell id="nom86BoGTSDF_hDM-FtU-21" style="edgeStyle=orthogonalEdgeStyle;rounded=0;orthogonalLoop=1;jettySize=auto;html=1;exitX=0.5;exitY=0;exitDx=0;exitDy=0;exitPerimeter=0;entryX=0.5;entryY=1;entryDx=0;entryDy=0;curved=1;" parent="1" source="nom86BoGTSDF_hDM-FtU-19" target="nom86BoGTSDF_hDM-FtU-17" edge="1">
          <mxGeometry relative="1" as="geometry" />
        </mxCell>
        <mxCell id="nom86BoGTSDF_hDM-FtU-22" value="" style="html=1;shadow=0;dashed=0;align=center;verticalAlign=middle;shape=mxgraph.arrows2.arrow;dy=0;dx=10;notch=0;" parent="1" vertex="1">
          <mxGeometry x="429" y="578" width="82" height="14" as="geometry" />
        </mxCell>
      </root>
    </mxGraphModel>
  </diagram>
  <diagram id="6u0zdDpgF7RaV3rY8r-i" name="ssh">
    <mxGraphModel dx="1070" dy="597" grid="0" gridSize="10" guides="1" tooltips="1" connect="1" arrows="1" fold="1" page="1" pageScale="1" pageWidth="827" pageHeight="1169" math="0" shadow="0">
      <root>
        <mxCell id="0" />
        <mxCell id="1" parent="0" />
        <mxCell id="fRFKwmafFVvAznLmdn3j-9" style="rounded=0;orthogonalLoop=1;jettySize=auto;html=1;exitX=0;exitY=1;exitDx=0;exitDy=0;" edge="1" parent="1" source="fRFKwmafFVvAznLmdn3j-1" target="fRFKwmafFVvAznLmdn3j-3">
          <mxGeometry relative="1" as="geometry" />
        </mxCell>
        <mxCell id="fRFKwmafFVvAznLmdn3j-10" style="rounded=0;orthogonalLoop=1;jettySize=auto;html=1;exitX=0.5;exitY=1;exitDx=0;exitDy=0;entryX=0.5;entryY=0;entryDx=0;entryDy=0;" edge="1" parent="1" source="fRFKwmafFVvAznLmdn3j-1" target="fRFKwmafFVvAznLmdn3j-4">
          <mxGeometry relative="1" as="geometry" />
        </mxCell>
        <mxCell id="fRFKwmafFVvAznLmdn3j-11" style="rounded=0;orthogonalLoop=1;jettySize=auto;html=1;exitX=1;exitY=1;exitDx=0;exitDy=0;" edge="1" parent="1" source="fRFKwmafFVvAznLmdn3j-1" target="fRFKwmafFVvAznLmdn3j-5">
          <mxGeometry relative="1" as="geometry" />
        </mxCell>
        <mxCell id="fRFKwmafFVvAznLmdn3j-1" value="Node1" style="ellipse;whiteSpace=wrap;html=1;aspect=fixed;" vertex="1" parent="1">
          <mxGeometry x="485" y="249" width="39" height="39" as="geometry" />
        </mxCell>
        <mxCell id="fRFKwmafFVvAznLmdn3j-2" value="Broker" style="rounded=1;whiteSpace=wrap;html=1;" vertex="1" parent="1">
          <mxGeometry x="279" y="254" width="52" height="26" as="geometry" />
        </mxCell>
        <mxCell id="fRFKwmafFVvAznLmdn3j-3" value="Leaf_A" style="ellipse;whiteSpace=wrap;html=1;" vertex="1" parent="1">
          <mxGeometry x="357.5" y="363" width="68" height="38" as="geometry" />
        </mxCell>
        <mxCell id="fRFKwmafFVvAznLmdn3j-4" value="Leaf_B" style="ellipse;whiteSpace=wrap;html=1;" vertex="1" parent="1">
          <mxGeometry x="470.5" y="363" width="68" height="38" as="geometry" />
        </mxCell>
        <mxCell id="fRFKwmafFVvAznLmdn3j-5" value="Leaf_C" style="ellipse;whiteSpace=wrap;html=1;" vertex="1" parent="1">
          <mxGeometry x="583.5" y="363" width="68" height="38" as="geometry" />
        </mxCell>
        <mxCell id="fRFKwmafFVvAznLmdn3j-6" value="Leaf_D" style="ellipse;whiteSpace=wrap;html=1;" vertex="1" parent="1">
          <mxGeometry x="744" y="363" width="68" height="38" as="geometry" />
        </mxCell>
        <mxCell id="fRFKwmafFVvAznLmdn3j-16" style="edgeStyle=none;rounded=0;orthogonalLoop=1;jettySize=auto;html=1;exitX=0.5;exitY=1;exitDx=0;exitDy=0;entryX=0.5;entryY=0;entryDx=0;entryDy=0;" edge="1" parent="1" source="fRFKwmafFVvAznLmdn3j-7" target="fRFKwmafFVvAznLmdn3j-6">
          <mxGeometry relative="1" as="geometry" />
        </mxCell>
        <mxCell id="fRFKwmafFVvAznLmdn3j-7" value="Node2" style="ellipse;whiteSpace=wrap;html=1;aspect=fixed;" vertex="1" parent="1">
          <mxGeometry x="722" y="249" width="39" height="39" as="geometry" />
        </mxCell>
        <mxCell id="fRFKwmafFVvAznLmdn3j-8" value="" style="html=1;shadow=0;dashed=0;align=center;verticalAlign=middle;shape=mxgraph.arrows2.twoWayArrow;dy=0.58;dx=12.97;" vertex="1" parent="1">
          <mxGeometry x="528" y="259.25" width="191" height="17.5" as="geometry" />
        </mxCell>
        <mxCell id="fRFKwmafFVvAznLmdn3j-12" value="SSHD/SSH" style="rounded=0;whiteSpace=wrap;html=1;" vertex="1" parent="1">
          <mxGeometry x="353" y="401" width="77" height="30" as="geometry" />
        </mxCell>
        <mxCell id="fRFKwmafFVvAznLmdn3j-13" value="SSHD/SSH" style="rounded=0;whiteSpace=wrap;html=1;" vertex="1" parent="1">
          <mxGeometry x="466" y="401" width="77" height="30" as="geometry" />
        </mxCell>
        <mxCell id="fRFKwmafFVvAznLmdn3j-14" value="SSHD/SSH" style="rounded=0;whiteSpace=wrap;html=1;" vertex="1" parent="1">
          <mxGeometry x="579" y="401" width="77" height="30" as="geometry" />
        </mxCell>
        <mxCell id="fRFKwmafFVvAznLmdn3j-15" value="SSHD/SSH" style="rounded=0;whiteSpace=wrap;html=1;" vertex="1" parent="1">
          <mxGeometry x="739.5" y="401" width="77" height="30" as="geometry" />
        </mxCell>
        <mxCell id="fRFKwmafFVvAznLmdn3j-17" value="" style="endArrow=classic;startArrow=classic;html=1;rounded=0;exitX=1;exitY=0.5;exitDx=0;exitDy=0;entryX=0;entryY=0.5;entryDx=0;entryDy=0;" edge="1" parent="1" source="fRFKwmafFVvAznLmdn3j-2" target="fRFKwmafFVvAznLmdn3j-1">
          <mxGeometry width="50" height="50" relative="1" as="geometry">
            <mxPoint x="338" y="312" as="sourcePoint" />
            <mxPoint x="388" y="262" as="targetPoint" />
          </mxGeometry>
        </mxCell>
        <mxCell id="fRFKwmafFVvAznLmdn3j-20" style="edgeStyle=none;rounded=0;orthogonalLoop=1;jettySize=auto;html=1;exitX=1;exitY=0.5;exitDx=0;exitDy=0;exitPerimeter=0;" edge="1" parent="1" source="fRFKwmafFVvAznLmdn3j-19" target="fRFKwmafFVvAznLmdn3j-2">
          <mxGeometry relative="1" as="geometry" />
        </mxCell>
        <mxCell id="fRFKwmafFVvAznLmdn3j-19" value="" style="html=1;whiteSpace=wrap;shape=isoCube2;backgroundOutline=1;isoAngle=17.52264186314173;strokeColor=#22a2ff;" vertex="1" parent="1">
          <mxGeometry x="171" y="244.5" width="41" height="45" as="geometry" />
        </mxCell>
        <mxCell id="fRFKwmafFVvAznLmdn3j-21" value="DACS" style="text;html=1;strokeColor=none;fillColor=none;align=center;verticalAlign=middle;whiteSpace=wrap;rounded=0;" vertex="1" parent="1">
          <mxGeometry x="161.5" y="289.5" width="60" height="30" as="geometry" />
        </mxCell>
        <mxCell id="fRFKwmafFVvAznLmdn3j-23" value="" style="endArrow=none;dashed=1;html=1;rounded=0;exitX=0;exitY=0;exitDx=41;exitDy=33.421060704392346;exitPerimeter=0;entryX=0.5;entryY=0;entryDx=0;entryDy=0;strokeColor=#FFA16B;strokeWidth=3;" edge="1" parent="1" source="fRFKwmafFVvAznLmdn3j-19" target="fRFKwmafFVvAznLmdn3j-3">
          <mxGeometry width="50" height="50" relative="1" as="geometry">
            <mxPoint x="467" y="415" as="sourcePoint" />
            <mxPoint x="517" y="365" as="targetPoint" />
            <Array as="points">
              <mxPoint x="303" y="274" />
              <mxPoint x="495" y="274" />
            </Array>
          </mxGeometry>
        </mxCell>
        <mxCell id="fRFKwmafFVvAznLmdn3j-24" value="" style="endArrow=none;dashed=1;html=1;rounded=0;strokeColor=#3A5431;strokeWidth=3;entryX=0.39;entryY=-0.019;entryDx=0;entryDy=0;fillColor=#6d8764;exitX=0.807;exitY=0.117;exitDx=0;exitDy=0;exitPerimeter=0;entryPerimeter=0;" edge="1" parent="1" source="fRFKwmafFVvAznLmdn3j-3" target="fRFKwmafFVvAznLmdn3j-4">
          <mxGeometry width="50" height="50" relative="1" as="geometry">
            <mxPoint x="467" y="415" as="sourcePoint" />
            <mxPoint x="517" y="365" as="targetPoint" />
            <Array as="points">
              <mxPoint x="501" y="279" />
            </Array>
          </mxGeometry>
        </mxCell>
        <mxCell id="fRFKwmafFVvAznLmdn3j-25" value="" style="endArrow=none;dashed=1;html=1;rounded=0;strokeColor=#6D1F00;strokeWidth=3;entryX=0.376;entryY=0.02;entryDx=0;entryDy=0;entryPerimeter=0;exitX=0.5;exitY=0;exitDx=0;exitDy=0;fillColor=#a0522d;" edge="1" parent="1" source="fRFKwmafFVvAznLmdn3j-5" target="fRFKwmafFVvAznLmdn3j-6">
          <mxGeometry width="50" height="50" relative="1" as="geometry">
            <mxPoint x="686" y="327" as="sourcePoint" />
            <mxPoint x="736" y="277" as="targetPoint" />
            <Array as="points">
              <mxPoint x="520" y="275" />
              <mxPoint x="730" y="277" />
            </Array>
          </mxGeometry>
        </mxCell>
      </root>
    </mxGraphModel>
  </diagram>
</mxfile>
